<?xml version="1.0" encoding="utf-8"?>
<!-- Generator: Adobe Illustrator 16.0.0, SVG Export Plug-In . SVG Version: 6.00 Build 0)  -->
<!DOCTYPE svg PUBLIC "-//W3C//DTD SVG 1.1//EN" "http://www.w3.org/Graphics/SVG/1.1/DTD/svg11.dtd">
<svg version="1.1" id="Layer_1" xmlns="http://www.w3.org/2000/svg" xmlns:xlink="http://www.w3.org/1999/xlink" x="0px" y="0px"
	 width="400px" height="200px" viewBox="0 0 400 200" enable-background="new 0 0 400 200" xml:space="preserve">
<rect fill="#6AFF55" stroke="#000000" stroke-width="2" stroke-miterlimit="10" width="400" height="200"/>
<rect x="201" y="54.5" fill="none" width="94.5" height="12"/>
<rect x="69.5" y="59.5" fill="none" width="302.5" height="100.5"/>
<rect x="44.5" y="3.5" fill="none" width="187.5" height="42"/>
<text transform="matrix(1.0441 0 0 1 23.499 28.3164)" font-family="'Cyberpnuk2'" font-size="22.9594">   SKILLS</text>
<rect x="5" y="31.5" fill="none" width="392" height="171.5"/>
<text transform="matrix(1 0 0 1 5 42.2397)"><tspan x="0" y="0" font-family="'ArialMT'" font-size="15"> </tspan><tspan x="0" y="56.4" font-family="'ArialMT'" font-size="20"> </tspan></text>
<text transform="matrix(1 0 0 1 25 75.5)"><tspan x="0" y="0" font-family="'Arial-BoldMT'" font-size="18">  mySQL</tspan><tspan x="73.02" y="0" font-family="'Arial-BoldMT'" font-size="18" letter-spacing="29">	</tspan><tspan x="108" y="0" font-family="'Arial-BoldMT'" font-size="18" letter-spacing="30">	</tspan><tspan x="144" y="0" font-family="'Arial-BoldMT'" font-size="18">php</tspan><tspan x="176.985" y="0" font-family="'Arial-BoldMT'" font-size="18" letter-spacing="-1">	</tspan><tspan x="180" y="0" font-family="'Arial-BoldMT'" font-size="18" letter-spacing="30">		</tspan><tspan x="252" y="0" font-family="'Arial-BoldMT'" font-size="18">javascript</tspan><tspan x="0" y="21.6" font-family="'Arial-BoldMT'" font-size="18">  angular.js</tspan><tspan x="95.027" y="21.6" font-family="'Arial-BoldMT'" font-size="18" letter-spacing="7">	</tspan><tspan x="108" y="21.6" font-family="'Arial-BoldMT'" font-size="18" letter-spacing="30">	</tspan><tspan x="144" y="21.6" font-family="'Arial-BoldMT'" font-size="18">HTML</tspan><tspan x="193.983" y="21.6" font-family="'Arial-BoldMT'" font-size="18" letter-spacing="17">	</tspan><tspan x="216" y="21.6" font-family="'Arial-BoldMT'" font-size="18" letter-spacing="30">	</tspan><tspan x="252" y="21.6" font-family="'Arial-BoldMT'" font-size="18">CSS</tspan><tspan x="0" y="43.2" font-family="'Arial-BoldMT'" font-size="18">  wordpress</tspan><tspan x="101.03" y="43.2" font-family="'Arial-BoldMT'" font-size="18" letter-spacing="1">	</tspan><tspan x="108" y="43.2" font-family="'Arial-BoldMT'" font-size="18" letter-spacing="30">	</tspan><tspan x="144" y="43.2" font-family="'Arial-BoldMT'" font-size="18">photoshop </tspan><tspan x="241.972" y="43.2" font-family="'Arial-BoldMT'" font-size="18" letter-spacing="5">	</tspan><tspan x="252" y="43.2" font-family="'Arial-BoldMT'" font-size="18">illustrator</tspan><tspan x="0" y="64.8" font-family="'Arial-BoldMT'" font-size="18">  premiere pro</tspan><tspan x="120.041" y="64.8" font-family="'Arial-BoldMT'" font-size="18" letter-spacing="18">	</tspan><tspan x="144" y="64.8" font-family="'Arial-BoldMT'" font-size="18">inDesign</tspan><tspan x="220.008" y="64.8" font-family="'Arial-BoldMT'" font-size="18" letter-spacing="26">	</tspan><tspan x="252" y="64.8" font-family="'Arial-BoldMT'" font-size="18">ninja stuff</tspan></text>
<rect x="314" y="17" fill="none" width="4.5" height="0"/>
</svg>
